<svg width="202" height="35" viewBox="0 0 202 35" fill="none" xmlns="http://www.w3.org/2000/svg">
<g clip-path="url(#clip0_495_1755)">
<path d="M201.544 33.7228H127.737V12.2628L119.562 0H193.369L201.544 12.2628V33.7228Z" fill="#070300"/>
<path d="M138.441 18.4966H139.335V25.6499H138.441V24.7813C138.007 25.4456 137.368 25.8032 136.499 25.8032C135.784 25.8032 135.171 25.5478 134.66 25.0368C134.149 24.5258 133.894 23.8616 133.894 23.1207C133.894 22.3798 134.149 21.7412 134.66 21.2302C135.171 20.7193 135.784 20.4382 136.499 20.4382C137.342 20.4382 137.981 20.7703 138.441 21.4601V18.4966ZM137.905 24.4237C138.262 24.066 138.415 23.6317 138.415 23.1207C138.415 22.6098 138.237 22.1755 137.905 21.8178C137.547 21.4601 137.138 21.2813 136.602 21.2813C136.091 21.2813 135.656 21.4601 135.324 21.8178C134.967 22.1755 134.813 22.5842 134.813 23.1207C134.813 23.6572 134.992 24.066 135.324 24.4237C135.682 24.7813 136.091 24.9346 136.602 24.9346C137.138 24.9346 137.572 24.7558 137.905 24.4237Z" fill="#F5F5F5"/>
<path d="M141.304 23.5033C141.483 24.423 142.172 24.934 143.143 24.934C143.807 24.934 144.318 24.6785 144.625 24.1931L145.391 24.6274C144.88 25.3938 144.14 25.777 143.143 25.777C142.326 25.777 141.661 25.5215 141.15 25.0106C140.64 24.4996 140.384 23.861 140.384 23.069C140.384 22.3025 140.64 21.6639 141.125 21.1529C141.636 20.642 142.275 20.3865 143.067 20.3865C143.807 20.3865 144.421 20.6419 144.906 21.1784C145.391 21.6894 145.621 22.3281 145.621 23.069C145.621 23.1967 145.621 23.3244 145.596 23.4777H141.304V23.5033ZM141.304 22.7369H144.727C144.574 21.766 143.91 21.2551 143.092 21.2551C142.121 21.2551 141.457 21.8427 141.304 22.7369Z" fill="#F5F5F5"/>
<path d="M149.99 20.54H150.961L148.917 25.6496H147.869L145.826 20.54H146.796L148.406 24.7043L149.99 20.54Z" fill="#F5F5F5"/>
<path d="M152.135 23.5033C152.314 24.423 153.004 24.934 153.974 24.934C154.639 24.934 155.15 24.6785 155.456 24.1931L156.223 24.6274C155.712 25.3938 154.971 25.777 153.974 25.777C153.157 25.777 152.493 25.5215 151.982 25.0106C151.471 24.4996 151.215 23.861 151.215 23.069C151.215 22.3025 151.471 21.6639 151.956 21.1529C152.467 20.642 153.106 20.3865 153.898 20.3865C154.639 20.3865 155.252 20.6419 155.737 21.1784C156.223 21.6894 156.453 22.3281 156.453 23.069C156.453 23.1967 156.453 23.3244 156.427 23.4777H152.135V23.5033ZM152.135 22.7369H155.558C155.405 21.766 154.741 21.2551 153.923 21.2551C152.953 21.2551 152.288 21.8427 152.135 22.7369Z" fill="#F5F5F5"/>
<path d="M157.475 25.6503V18.1904H158.369V25.6503H157.475Z" fill="#F5F5F5"/>
<path d="M162.125 25.7774C161.384 25.7774 160.746 25.522 160.209 25.011C159.698 24.5 159.443 23.8614 159.443 23.0949C159.443 22.3285 159.698 21.7154 160.209 21.1789C160.72 20.6679 161.384 20.4124 162.125 20.4124C162.866 20.4124 163.505 20.6679 164.041 21.1789C164.552 21.6898 164.833 22.3285 164.833 23.0949C164.833 23.8614 164.578 24.4745 164.041 25.011C163.505 25.522 162.866 25.7774 162.125 25.7774ZM163.403 24.3979C163.76 24.0402 163.914 23.6314 163.914 23.0949C163.914 22.5584 163.735 22.1497 163.403 21.792C163.071 21.4343 162.636 21.281 162.125 21.281C161.614 21.281 161.206 21.4599 160.848 21.792C160.49 22.1497 160.337 22.5584 160.337 23.0949C160.337 23.6314 160.516 24.0402 160.848 24.3979C161.206 24.7555 161.614 24.9088 162.125 24.9088C162.636 24.9344 163.071 24.7555 163.403 24.3979Z" fill="#F5F5F5"/>
<path d="M170.53 21.2049C171.04 21.7158 171.296 22.3545 171.296 23.0954C171.296 23.8363 171.04 24.475 170.53 25.0115C170.019 25.5224 169.405 25.7779 168.69 25.7779C167.847 25.7779 167.208 25.4458 166.748 24.756V27.6684H165.854V20.5151H166.748V21.3837C167.183 20.7195 167.821 20.3618 168.69 20.3618C169.405 20.4129 170.019 20.6939 170.53 21.2049ZM169.865 24.4239C170.223 24.0662 170.376 23.6319 170.376 23.121C170.376 22.61 170.197 22.1757 169.865 21.818C169.508 21.4604 169.099 21.2815 168.588 21.2815C168.077 21.2815 167.643 21.4604 167.285 21.818C166.927 22.1757 166.774 22.5845 166.774 23.121C166.774 23.6575 166.953 24.0662 167.285 24.4239C167.643 24.7816 168.051 24.9348 168.588 24.9348C169.099 24.9348 169.508 24.756 169.865 24.4239Z" fill="#F5F5F5"/>
<path d="M179.779 22.4818V25.6497H178.885V22.5073C178.885 21.7154 178.45 21.2555 177.761 21.2555C176.994 21.2555 176.509 21.7664 176.509 22.8139V25.6497H175.615V22.5073C175.615 21.7154 175.206 21.2555 174.542 21.2555C173.801 21.2555 173.239 21.7664 173.239 22.8139V25.6497H172.344V20.5402H173.239V21.23C173.596 20.6935 174.107 20.4124 174.771 20.4124C175.461 20.4124 175.947 20.6934 176.279 21.281C176.636 20.6934 177.173 20.4124 177.888 20.4124C179.012 20.4124 179.779 21.2044 179.779 22.4818Z" fill="#F5F5F5"/>
<path d="M181.644 23.5035C181.822 24.4232 182.512 24.9341 183.483 24.9341C184.147 24.9341 184.658 24.6787 184.965 24.1933L185.731 24.6276C185.22 25.394 184.479 25.7772 183.483 25.7772C182.666 25.7772 182.001 25.5217 181.49 25.0108C180.979 24.4998 180.724 23.8611 180.724 23.0692C180.724 22.3027 180.979 21.664 181.465 21.1531C181.976 20.6421 182.614 20.3867 183.406 20.3867C184.147 20.3867 184.76 20.6421 185.246 21.1786C185.731 21.6896 185.961 22.3283 185.961 23.0692C185.961 23.1969 185.961 23.3246 185.936 23.4779H181.644V23.5035ZM181.644 22.737H185.067C184.914 21.7662 184.25 21.2553 183.432 21.2553C182.461 21.2553 181.797 21.8429 181.644 22.737Z" fill="#F5F5F5"/>
<path d="M191.505 22.5327V25.6751H190.611V22.5838C190.611 21.7663 190.125 21.2809 189.333 21.2809C188.439 21.2809 187.852 21.8174 187.852 22.967V25.6751H186.957V20.5655H187.852V21.3064C188.209 20.7188 188.771 20.4378 189.512 20.4378C190.713 20.4123 191.505 21.2298 191.505 22.5327Z" fill="#F5F5F5"/>
<path d="M195.516 21.4089H194.162V24.1681C194.162 24.96 194.622 24.8834 195.516 24.8578V25.6498C193.958 25.8542 193.268 25.4454 193.268 24.1681V21.4089H192.246V20.5403H193.268V19.3651L194.162 19.1096V20.5403H195.516V21.4089Z" fill="#F5F5F5"/>
<path d="M105.767 34.9998C98.1538 34.9998 91.9713 28.8173 91.9713 21.2041C91.9713 13.5909 98.1538 7.40845 105.767 7.40845C113.38 7.40845 119.563 13.5909 119.563 21.2041C119.563 28.8173 113.38 34.9998 105.767 34.9998ZM105.767 11.496C100.402 11.496 96.0589 15.8391 96.0589 21.2041C96.0589 26.5691 100.402 30.9122 105.767 30.9122C111.132 30.9122 115.475 26.5691 115.475 21.2041C115.475 15.8391 111.132 11.496 105.767 11.496Z" fill="#070300"/>
<path d="M88.9064 33.7231H84.8188V12.2631H82.264L76.7202 31.7049C76.3881 32.9056 75.2895 33.7231 74.0377 33.7231C72.9902 33.7231 72.045 33.1355 71.5596 32.2158L63.3588 16.5807V33.7231H59.2712V10.858C59.2712 9.37627 60.4719 8.17554 61.9537 8.17554C62.95 8.17554 63.8697 8.73759 64.3296 9.6062L73.68 27.464L79.1983 8.17554H88.9064V33.7231Z" fill="#070300"/>
<path d="M21.179 33.7231C20.0038 33.7231 18.9052 33.11 18.3176 32.1136L6.51465 12.2631H4.08762V33.7231H0V8.17554H8.81393L20.4381 27.6939V8.17554H24.5257V30.3764C24.5257 32.2158 23.0184 33.7231 21.179 33.7231Z" fill="#070300"/>
<path d="M41.8983 34.2341C34.5661 34.2341 28.6135 28.2815 28.6135 20.9493V8.17554H32.7011V20.9493C32.7011 26.0333 36.8143 30.1465 41.8983 30.1465C46.9823 30.1465 51.0954 26.0333 51.0954 20.9493V8.17554H55.183V20.9493C55.183 28.2815 49.2305 34.2341 41.8983 34.2341Z" fill="#070300"/>
</g>
<defs>
<clipPath id="clip0_495_1755">
<rect width="202" height="35" fill="white"/>
</clipPath>
</defs>
</svg>
