<svg width="145" height="62" viewBox="0 0 145 62" fill="none" xmlns="http://www.w3.org/2000/svg">
<path d="M0 10.7236H7.41893L12.7684 32.3955L18.7374 10.7236H24.4811L30.45 32.3955L35.7995 10.7236H43.2184L34.6874 41.6814H26.649L21.6092 23.4055L16.5694 41.6814H8.53107L0 10.7236Z" fill="black"/>
<path d="M43.2173 45.3444C43.2173 36.2276 50.4251 29.2385 59.3081 29.2385C68.1911 29.2385 75.3989 36.2276 75.3989 45.3444C75.3989 54.4613 68.1911 61.4503 59.3081 61.4503C50.4251 61.4503 43.2173 54.4613 43.2173 45.3444ZM68.3178 45.3444C68.3178 39.8208 64.3338 36.1431 59.3081 36.1431C54.2824 36.1431 50.2984 39.8208 50.2984 45.3444C50.2984 50.8681 54.2824 54.5458 59.3081 54.5458C64.3338 54.5458 68.3178 50.8681 68.3178 45.3444Z" fill="black"/>
<path d="M103.26 41.1171V47.9231H85.1425V16.9653H92.2095V41.1171H103.26Z" fill="black"/>
<path d="M143.478 22.4326H111.69C111.473 22.4326 111.296 22.6093 111.296 22.8272V24.6872C111.296 24.9051 111.473 25.0817 111.69 25.0817H143.478C143.695 25.0817 143.872 24.9051 143.872 24.6872V22.8272C143.872 22.6093 143.695 22.4326 143.478 22.4326Z" fill="black"/>
<path d="M111.857 28.2378L113.17 31.6884H113.222L114.534 28.2378H115.096L113.472 32.337H112.92L111.296 28.2378H111.857Z" fill="black"/>
<path d="M116.32 28.2378V32.337H115.784V28.2378H116.32Z" fill="black"/>
<path d="M120.899 28.2378V32.337H120.381L117.972 29.1185H117.928V32.337H117.393V28.2378H117.911L120.329 31.4642H120.372V28.2378H120.899Z" fill="black"/>
<path d="M125.476 28.2378V32.337H124.958L122.549 29.1185H122.506V32.337H121.97V28.2378H122.488L124.906 31.4642H124.949V28.2378H125.476Z" fill="black"/>
<path d="M126.167 28.2378H126.781L128.007 30.1512H128.059L129.285 28.2378H129.898L128.3 30.6476V32.337H127.765V30.6476L126.167 28.2378Z" fill="black"/>
<path d="M130.628 28.6781V28.2378H133.943V28.6781H132.553V32.337H132.018V28.6781H130.628Z" fill="black"/>
<path d="M137.188 29.2627C137.162 29.0599 137.057 28.9025 136.872 28.7903C136.688 28.6783 136.462 28.6222 136.195 28.6222C135.999 28.6222 135.828 28.6515 135.681 28.7103C135.535 28.7691 135.422 28.8498 135.34 28.9525C135.259 29.0552 135.219 29.1721 135.219 29.3028C135.219 29.4122 135.247 29.5063 135.303 29.5849C135.36 29.6624 135.434 29.7271 135.523 29.7791C135.612 29.8298 135.706 29.8718 135.804 29.9052C135.902 29.9372 135.992 29.9633 136.074 29.9833L136.523 30.0954C136.638 30.1233 136.766 30.1621 136.907 30.2114C137.049 30.2609 137.185 30.3282 137.315 30.4136C137.446 30.4977 137.554 30.6058 137.639 30.7378C137.724 30.87 137.766 31.0321 137.766 31.2243C137.766 31.4458 137.704 31.6459 137.578 31.8247C137.455 32.0035 137.273 32.1457 137.034 32.2511C136.797 32.3565 136.508 32.4092 136.169 32.4092C135.852 32.4092 135.578 32.3618 135.346 32.267C135.116 32.1723 134.934 32.0403 134.802 31.8707C134.671 31.7012 134.597 31.5045 134.58 31.2803H135.132C135.147 31.4351 135.203 31.5631 135.301 31.6646C135.4 31.7646 135.525 31.8393 135.676 31.8888C135.829 31.9368 135.993 31.9608 136.169 31.9608C136.373 31.9608 136.556 31.9301 136.719 31.8688C136.882 31.8061 137.01 31.7193 137.106 31.6085C137.201 31.4965 137.248 31.3657 137.248 31.2162C137.248 31.0801 137.207 30.9693 137.125 30.884C137.043 30.7986 136.935 30.7292 136.801 30.6758C136.667 30.6224 136.523 30.5758 136.367 30.5358L135.823 30.3916C135.478 30.2995 135.204 30.1681 135.003 29.9974C134.801 29.8264 134.701 29.603 134.701 29.3268C134.701 29.0972 134.768 28.8971 134.901 28.7264C135.037 28.5542 135.218 28.4207 135.445 28.326C135.674 28.2299 135.93 28.1819 136.212 28.1819C136.497 28.1819 136.75 28.2292 136.972 28.3241C137.193 28.4173 137.369 28.5454 137.498 28.7083C137.629 28.8711 137.698 29.0559 137.706 29.2627H137.188Z" fill="black"/>
<path d="M139.182 28.2378V32.337H138.646V28.2378H139.182Z" fill="black"/>
<path d="M140.437 32.337H139.875L141.499 28.2378H142.051L143.675 32.337H143.114L141.792 28.8863H141.758L140.437 32.337ZM140.644 30.7357H142.907V31.176H140.644V30.7357Z" fill="black"/>
<path d="M115.479 0.126709H116.38V7.03125H115.479V3.91716H112.129V7.03125H111.214V0.126709H112.129V3.05761H115.479V0.126709Z" fill="black"/>
<path d="M120.196 1.04273C120.886 0.338182 121.73 0 122.73 0C123.729 0 124.574 0.352273 125.264 1.04273C125.968 1.73318 126.306 2.57864 126.306 3.57909C126.306 4.57955 125.954 5.41091 125.264 6.11545C124.574 6.82 123.729 7.15818 122.73 7.15818C121.73 7.15818 120.886 6.80591 120.196 6.11545C119.506 5.425 119.154 4.57955 119.154 3.57909C119.154 2.57864 119.506 1.73318 120.196 1.04273ZM124.616 1.66273C124.11 1.14136 123.476 0.887727 122.73 0.887727C121.984 0.887727 121.336 1.14136 120.829 1.66273C120.323 2.17 120.069 2.81818 120.069 3.57909C120.069 4.34 120.323 4.97409 120.829 5.49545C121.336 6.00273 121.97 6.27045 122.73 6.27045C123.49 6.27045 124.124 6.01682 124.616 5.49545C125.123 4.97409 125.391 4.34 125.391 3.57909C125.391 2.81818 125.137 2.18409 124.616 1.66273Z" fill="black"/>
<path d="M135.525 0.126709V7.03125H134.624V1.63443L132.371 5.3967H132.259L130.006 1.64852V7.03125H129.091V0.126709H130.133L132.329 3.77625L134.511 0.126709H135.553H135.525Z" fill="black"/>
<path d="M139.58 6.1717H142.79V7.04534H138.665V0.126709H142.733V1.00035H139.58V3.12807H142.494V3.98761H139.58V6.18579V6.1717Z" fill="black"/>
<path d="M115.479 9.99023H116.38V16.8947H115.479V13.7807H112.129V16.8947H111.214V9.99023H112.129V12.9211H115.479V9.99023Z" fill="black"/>
<path d="M119.322 10.9063C120.011 10.2017 120.856 9.86353 121.856 9.86353C122.855 9.86353 123.7 10.2158 124.39 10.9063C125.093 11.5967 125.431 12.4422 125.431 13.4426C125.431 14.4431 125.079 15.2744 124.39 15.979C123.7 16.6835 122.855 17.0217 121.856 17.0217C120.856 17.0217 120.011 16.6694 119.322 15.979C118.632 15.2885 118.28 14.4431 118.28 13.4426C118.28 12.4422 118.632 11.5967 119.322 10.9063ZM123.756 11.5263C123.249 11.0049 122.616 10.7513 121.87 10.7513C121.124 10.7513 120.476 11.0049 119.969 11.5263C119.462 12.0335 119.209 12.6817 119.209 13.4426C119.209 14.2035 119.462 14.8376 119.969 15.359C120.476 15.8663 121.109 16.134 121.87 16.134C122.63 16.134 123.263 15.8803 123.756 15.359C124.263 14.8376 124.53 14.2035 124.53 13.4426C124.53 12.6817 124.277 12.0476 123.756 11.5263Z" fill="black"/>
<path d="M131.36 9.99023V10.8639H129.319V16.9088H128.418V10.8639H126.391V9.99023H131.375H131.36Z" fill="black"/>
<path d="M133.976 16.0348H137.186V16.9084H133.061V10.0039H137.13V10.8775H133.976V13.0053H136.891V13.8648H133.976V16.063V16.0348Z" fill="black"/>
<path d="M140.004 16.0348H142.988V16.9084H139.089V10.0039H140.004V16.0489V16.0348Z" fill="black"/>
</svg>
