<svg width="124" height="44" viewBox="0 0 124 44" fill="none" xmlns="http://www.w3.org/2000/svg">
<g clip-path="url(#clip0_495_1817)">
<mask id="mask0_495_1817" style="mask-type:luminance" maskUnits="userSpaceOnUse" x="0" y="0" width="124" height="44">
<path d="M123.932 0H0V43.9994H123.932V0Z" fill="white"/>
</mask>
<g mask="url(#mask0_495_1817)">
<path d="M0 43.2614V25.0322H5.44158V31.6223H14.4333V25.0322H19.8749V43.2614H14.4333V36.1658H5.44158V43.2614H0Z" fill="#1C325F"/>
<path d="M34.9446 24.7374C37.5861 24.7374 39.7564 25.2281 41.4556 26.2097C42.8174 26.9881 43.9286 28.1917 44.6431 29.6621C45.2171 30.9284 45.5058 32.3224 45.4858 33.7311V34.4651C45.4842 35.54 45.3185 36.6076 44.9954 37.6249C44.666 38.6771 44.1266 39.639 43.4151 40.4431C41.5937 42.5127 38.7702 43.5475 34.9446 43.5475H33.9145C31.273 43.5475 29.1102 43.0412 27.4261 42.0286C26.0434 41.2455 24.9273 40.0103 24.2387 38.5007C23.6553 37.2467 23.3586 35.8608 23.3733 34.4584V33.7244C23.3499 32.3126 23.647 30.9158 24.2387 29.6555C24.9358 28.1713 26.0516 26.9628 27.4261 26.2031C29.0951 25.22 31.2578 24.7292 33.9145 24.7307L34.9446 24.7374ZM39.8176 33.9262C39.8176 32.652 39.4913 31.6312 38.8388 30.864C37.9433 29.8203 36.4783 29.2978 34.444 29.2963C32.4412 29.2963 30.9769 29.8189 30.0511 30.864C29.385 31.6312 29.0518 32.652 29.0518 33.9262V34.2433C29.0518 35.5028 29.4008 36.5324 30.0986 37.3321C31.0244 38.4098 32.4735 38.9486 34.446 38.9486C36.4804 38.9486 37.9453 38.4098 38.8409 37.3321C39.492 36.5472 39.8182 35.5176 39.8196 34.2433L39.8176 33.9262Z" fill="#1C325F"/>
<path d="M53.9339 43.2614V29.6378H47.2642V25.0322H66.0141V29.6378H59.3528V43.2614H53.9339Z" fill="#1C325F"/>
<path d="M69.2117 25.0322H85.4437V29.2208H74.6059V31.8685H85.0955V36.2034H74.6059V39.0262H85.5797V43.2614H69.2117V25.0322Z" fill="#1C325F"/>
<path d="M88.7836 25.0322H94.2253V38.5073H101.931V43.2614H88.7836V25.0322Z" fill="#1C325F"/>
<path d="M114.032 43.5784C111.392 43.5784 109.321 43.2192 107.818 42.5008C106.581 41.9095 105.702 41.0964 105.176 40.0616C104.793 39.2514 104.604 38.3499 104.631 37.4407V37.2189H110.503C110.509 37.4982 110.569 37.7729 110.679 38.026C110.789 38.279 110.947 38.5048 111.141 38.6891C111.764 39.2937 112.794 39.596 114.232 39.596H114.368C115.839 39.596 116.878 39.392 117.486 38.984C117.699 38.8556 117.87 38.6588 117.976 38.4208C118.063 38.1875 118.106 37.938 118.102 37.6868C118.106 37.4566 118.059 37.2287 117.966 37.0216C117.852 36.8102 117.686 36.6368 117.486 36.5205C116.97 36.1937 116.068 36.0223 114.778 36.006L112.462 35.9218C109.669 35.8242 107.657 35.244 106.429 34.181C105.366 33.2837 104.835 32.051 104.835 30.4825V30.2607C104.835 28.5622 105.412 27.2717 106.565 26.3891C107.991 25.3278 110.366 24.7971 113.69 24.7971H114.559C118.096 24.7971 120.577 25.401 122.004 26.6086C123.035 27.4957 123.552 28.7374 123.554 30.3339V30.529H117.766C117.725 30.2984 117.655 30.0747 117.56 29.8639C117.444 29.6385 117.28 29.4456 117.081 29.3006C116.504 28.8748 115.544 28.662 114.197 28.662H113.991C112.655 28.662 111.715 28.8009 111.168 29.0789C110.962 29.1734 110.786 29.3268 110.655 29.5223C110.551 29.7114 110.501 29.9283 110.506 30.1476C110.501 30.3693 110.556 30.5879 110.666 30.7753C110.776 30.9626 110.936 31.1101 111.124 31.1987C111.626 31.5269 112.468 31.6984 113.651 31.7131L116.042 31.7885C118.971 31.8861 121.066 32.425 122.326 33.405C122.848 33.8123 123.253 34.3683 123.498 35.0104C123.744 35.7096 123.864 36.4534 123.851 37.2012V37.4961C123.879 38.4744 123.675 39.4442 123.259 40.3145C122.727 41.3107 121.839 42.078 120.594 42.616C119.124 43.2546 117.143 43.5733 114.652 43.5717L114.032 43.5784Z" fill="#1C325F"/>
<path d="M18.7829 11.1047C18.1606 10.4203 17.2417 9.95537 16.026 9.70996C17.0056 9.5266 17.911 9.02973 18.6242 8.28417C18.9805 7.90994 19.2616 7.46102 19.4501 6.9652C19.6386 6.46937 19.7306 5.93718 19.7204 5.40155V5.17981C19.7204 3.75625 19.3247 2.6616 18.5336 1.89586C17.3825 0.796028 15.4011 0.245375 12.5893 0.243896H0.0165405V18.298L2.94853 17.9165C3.78918 17.8034 4.62777 17.6948 5.45812 17.6083V12.5526H11.1758C12.3626 12.5526 13.195 12.7877 13.6813 13.2622C13.9404 13.5287 14.1258 13.8672 14.217 14.2401C14.3311 14.7384 14.3844 15.2504 14.3757 15.7635V16.8344C16.23 16.7258 18.0679 16.6527 19.8646 16.6127V14.2401C19.8564 12.954 19.4958 11.9074 18.7829 11.1047ZM14.0439 6.32178C14.0439 6.88056 13.9038 7.29078 13.6133 7.55021C13.2492 7.89465 12.6655 8.06613 11.8619 8.06465H5.45812V4.60995H11.8619C12.649 4.60995 13.2342 4.77182 13.6133 5.09999C13.7631 5.2475 13.8798 5.42978 13.9544 5.63302C14.029 5.83626 14.0596 6.05512 14.0439 6.27299V6.32178Z" fill="#1C325F"/>
<path d="M25.2712 0.243896V16.5306C27.131 16.5306 28.9456 16.5573 30.7148 16.6105V0.243896H25.2712Z" fill="#1C325F"/>
<path d="M55.6748 9.63674C54.9743 9.02918 54.0574 8.62339 52.9201 8.40831C53.2871 8.35361 53.645 8.24312 53.9832 8.08014C54.3527 7.9088 54.6991 7.68509 55.0134 7.41492C55.3733 7.09319 55.6607 6.68772 55.8538 6.22911C56.0468 5.77048 56.1406 5.27067 56.1281 4.76735V4.54561C56.1484 3.97805 56.0435 3.41339 55.8222 2.89776C55.6009 2.38214 55.2694 1.93015 54.8548 1.57873C53.804 0.69177 52.1763 0.248291 49.9345 0.248291H36.653V16.8344C39.7271 16.9852 42.6283 17.1781 45.3439 17.3688C47.5403 17.524 50.4682 17.7103 53.8658 17.8766C54.4862 17.6474 55.0614 17.2955 55.5616 16.8388C56.534 15.9519 57.0203 14.7271 57.0203 13.1646V12.9185C57.0203 11.5304 56.5711 10.4328 55.6748 9.63674ZM42.1008 4.29282H48.6941C49.3493 4.29282 49.8088 4.41921 50.0726 4.66756C50.2096 4.80222 50.3173 4.96792 50.3879 5.15271C50.4584 5.33751 50.4901 5.53683 50.4805 5.73634V5.78513C50.4805 6.74747 49.8892 7.23309 48.7024 7.23309H42.109L42.1008 4.29282ZM51.1419 12.6014C51.1547 12.8053 51.1267 13.0097 51.0599 13.2009C50.9931 13.3921 50.889 13.5658 50.7545 13.7101C50.4228 14.0715 49.883 14.2467 49.1371 14.2467H42.1008V11.007H49.1371C49.8953 11.007 50.4372 11.1534 50.7545 11.4506C50.8899 11.5833 50.9951 11.7477 51.0623 11.931C51.1295 12.1144 51.1567 12.3119 51.1419 12.5082V12.6014Z" fill="#1C325F"/>
<path d="M74.7376 0.243896H67.5611L60.0077 18.1405L65.3833 18.2935L66.6031 15.3222H75.5556L76.8166 18.3379L82.5487 18.1826L74.7376 0.243896ZM68.2658 11.3087L71.0453 4.49686L73.8908 11.3087H68.2658Z" fill="#1C325F"/>
<path d="M104.49 10.2333C104.245 9.59156 103.84 9.03574 103.318 8.62788C102.058 7.65075 99.9635 7.11267 97.0336 7.01362L94.6414 6.94044C93.4546 6.92049 92.6139 6.74754 92.1132 6.42158C91.9241 6.33285 91.764 6.18501 91.6538 5.99721C91.5435 5.80941 91.4883 5.59031 91.4952 5.36831C91.4876 5.14943 91.5376 4.93269 91.6394 4.743C91.7689 4.54593 91.9475 4.39221 92.1545 4.29953C92.7039 4.02013 93.6449 3.88118 94.9772 3.88266H95.1834C96.5322 3.88266 97.4938 4.09479 98.0684 4.51905C98.2666 4.66273 98.4306 4.85593 98.5458 5.08227C98.6425 5.29297 98.7118 5.51675 98.7518 5.74749H104.542V5.54349C104.542 3.944 104.024 2.70301 102.99 1.82049C101.569 0.606827 99.0887 0 95.5501 0H94.6868C91.3571 0 88.98 0.531436 87.5556 1.59431C86.4018 2.48127 85.8249 3.77179 85.8249 5.46588V5.68762C85.8249 7.25754 86.3564 8.49188 87.4196 9.39067C88.6477 10.4521 90.6593 11.0316 93.4546 11.1291L95.7788 11.2023C97.0687 11.2222 97.9756 11.393 98.4882 11.7167C98.6864 11.8355 98.8514 12.0093 98.9666 12.2201C99.0633 12.4261 99.1111 12.6545 99.1063 12.8853C99.1102 13.1367 99.0662 13.3864 98.9783 13.6193C98.8778 13.8628 98.7059 14.064 98.4882 14.1914C97.8848 14.6038 96.8399 14.8078 95.3688 14.8078H95.2328C93.7905 14.8078 92.7603 14.5047 92.1421 13.8986C91.9472 13.7149 91.7899 13.4895 91.6802 13.2368C91.5706 12.9841 91.5111 12.7095 91.5054 12.4307H85.6189V12.6524C85.5938 13.5623 85.7815 14.4643 86.1648 15.2756C86.6964 16.3222 87.5783 17.136 88.8063 17.7281L88.9382 17.7857C94.4869 17.3423 99.446 16.5617 103.059 15.3466C103.559 15.1803 104.045 15.0339 104.523 14.9031C104.747 14.199 104.855 13.4585 104.844 12.7145V12.4307C104.859 11.6805 104.739 10.9344 104.49 10.2333Z" fill="#1C325F"/>
</g>
</g>
<defs>
<clipPath id="clip0_495_1817">
<rect width="124" height="44" fill="white"/>
</clipPath>
</defs>
</svg>
