<svg width="48" height="48" viewBox="0 0 48 48" fill="none" xmlns="http://www.w3.org/2000/svg">
<path d="M47.5772 9.53634L33.0198 24L47.5772 38.4637C47.8403 37.9136 48 37.3056 48 36.6562V11.3437C48 10.6943 47.8403 10.0864 47.5772 9.53634ZM43.7812 7.125H4.21875C3.56934 7.125 2.96137 7.28466 2.41134 7.54781L21.0173 26.06C22.6624 27.7051 25.3376 27.7051 26.9827 26.06L45.5887 7.54781C45.0386 7.28466 44.4307 7.125 43.7812 7.125ZM0.422813 9.53634C0.159656 10.0864 0 10.6943 0 11.3437V36.6562C0 37.3057 0.159656 37.9137 0.422813 38.4637L14.9802 24L0.422813 9.53634Z" fill="#111111"/>
<path d="M31.0313 25.9885L28.9713 28.0485C26.2302 30.7896 21.7698 30.7896 19.0287 28.0485L16.9688 25.9885L2.41138 40.4522C2.96141 40.7153 3.56938 40.875 4.21878 40.875H43.7813C44.4307 40.875 45.0387 40.7153 45.5887 40.4522L31.0313 25.9885Z" fill="#111111"/>
</svg>
