<svg width="2668" height="494" viewBox="0 0 2668 494" fill="none" xmlns="http://www.w3.org/2000/svg">
<g opacity="0.7">
<path d="M0 86.3544H273.143V493.68H361.383V86.3544H632.223V0.172363H0V86.3544Z" fill="#D159AF"/>
<path d="M2645.83 119.006C2598.97 40.5913 2535.27 0.804199 2456.5 0.804199H2249.97C2237.73 0.804199 2221.83 2.45614 2201.35 5.86546L2198.9 6.49812C2091.3 45.3363 2036.74 116.651 2036.74 218.438V275.377C2036.74 294.322 2039.34 314.497 2044.45 335.41L2044.95 336.956C2084.5 440.501 2157.48 493.012 2261.95 493.012H2441.82C2468.45 493.012 2495.33 488.724 2521.67 480.323L2523.04 479.796C2618.77 437.514 2667.31 370.382 2667.31 280.263V199.248C2667.31 177.456 2660.51 151.658 2646.51 120.376L2645.83 119.006ZM2579.07 270.843C2579.07 283.813 2577.52 296.255 2574.72 307.186C2553.2 374.248 2506.56 406.83 2432.17 406.83H2271.6C2250.04 406.83 2233.74 404.826 2222.69 400.714C2156.98 378.922 2125.02 334.847 2125.02 265.958V223.324C2125.02 201.884 2128.66 182.869 2135.56 167.474C2163.28 113.312 2201.46 86.9862 2252.27 86.9862H2451.82C2462.08 86.9862 2475.14 89.0248 2490.72 93.0667C2550.17 120.798 2579.07 158.758 2579.07 209.019V270.843Z" fill="#D159AF"/>
<path d="M808.079 0H726.244H726.208V78.6253H726.244V207.687H726.208V286.313H726.244V415.375H726.208V494H726.244H808.079H1216.03V415.375H808.079V286.313H1194.37V207.687H808.079V78.6253H1216.03V0H808.079Z" fill="#D159AF"/>
<path d="M1667.22 350.422H1583.63C1577.44 325.397 1557.1 249.759 1490.53 9.87648L1487.79 0H1309.98V494H1398.33V86.2874H1420.53L1515.9 436.674H1734.59L1737.33 426.798C1803.54 186.985 1823.84 111.313 1830.07 86.2523H1854.54V493.965H1942.89V0H1762.34L1667.22 350.422Z" fill="#D159AF"/>
</g>
</svg>
